<svg xmlns="http://www.w3.org/2000/svg" version="1.1" xmlns:xlink="http://www.w3.org/1999/xlink" width="200" height="200"><svg xmlns="http://www.w3.org/2000/svg" version="1.1" xmlns:xlink="http://www.w3.org/1999/xlink" viewBox="0 0 200 200"><rect width="200" height="200" fill="url('#gradient')"></rect><defs><linearGradient id="SvgjsLinearGradient1001" gradientTransform="rotate(45 0.5 0.5)"><stop offset="0%" stop-color="#dee90b"></stop><stop offset="100%" stop-color="#d9e241"></stop></linearGradient></defs><g><g fill="#1b3855" transform="matrix(2.7771583546783187,0,0,2.7771583546783187,10.077683061307425,119.74497113903908)" stroke="#0e5278" stroke-width="0.2"><path d="M9.98 0L9.15-2.66L4.45-2.66L3.63 0L-0.03 0L5.19-14.22L8.41-14.22L13.66 0L9.98 0ZM6.80-10.23L5.27-5.30L8.33-5.30L6.80-10.23ZM18.13-14.22L18.13-2.64L24.09-2.64L24.09 0L14.70 0L14.70-14.22L18.13-14.22ZM31.15-4.82L28.96-4.82L28.96 0L25.54 0L25.54-14.22L31.21-14.22Q32.84-14.22 34.10-13.62Q35.35-13.02 36.04-11.91Q36.73-10.80 36.73-9.39L36.73-9.39Q36.73-7.31 35.24-6.07Q33.75-4.82 31.15-4.82L31.15-4.82ZM28.96-11.57L28.96-7.47L31.21-7.47Q32.21-7.47 32.73-7.97Q33.25-8.47 33.25-9.38L33.25-9.38Q33.25-10.37 32.71-10.97Q32.18-11.56 31.25-11.57L31.25-11.57L28.96-11.57ZM50.44-14.22L50.44 0L47.03 0L47.03-5.94L41.98-5.94L41.98 0L38.55 0L38.55-14.22L41.98-14.22L41.98-8.57L47.03-8.57L47.03-14.22L50.44-14.22ZM55.30-14.22L58.13-3.87L60.96-14.22L64.79-14.22L60 0L56.25 0L51.50-14.22L55.30-14.22Z"></path></g></g></svg><style>@media (prefers-color-scheme: light) { :root { filter: none; } }
@media (prefers-color-scheme: dark) { :root { filter: none; } }
</style></svg>